<?xml version="1.0" encoding="UTF-8"?> <svg xmlns="http://www.w3.org/2000/svg" width="92" height="114" viewBox="0 0 92 114" fill="none"> <path d="M5.48645 3.26929C5.20911 4.77196 3.76643 5.76516 2.26509 5.48809C0.762425 5.21049 -0.230894 3.76782 0.0464396 2.26516C0.323773 0.762625 1.76509 -0.230707 3.26776 0.0463596C4.77043 0.32396 5.76378 1.76676 5.48645 3.26929Z" fill="white"></path> <path d="M26.9024 3.26929C26.6264 4.77196 25.1838 5.76516 23.6811 5.48809C22.1784 5.21049 21.1851 3.76782 21.4625 2.26516C21.7398 0.762625 23.1824 -0.230707 24.6851 0.0463596C26.1864 0.32396 27.1798 1.76676 26.9024 3.26929" fill="white"></path> <path d="M48.3198 3.26929C48.0424 4.77196 46.5997 5.76516 45.0971 5.48809C43.5944 5.21049 42.6011 3.76782 42.8784 2.26516C43.1557 0.762625 44.5984 -0.230707 46.1011 0.0463596C47.6037 0.32396 48.5971 1.76676 48.3198 3.26929Z" fill="white"></path> <path d="M69.7357 3.26929C69.4584 4.77196 68.0158 5.76516 66.5131 5.48809C65.0118 5.21049 64.0184 3.76782 64.2958 2.26516C64.5718 0.762625 66.0144 -0.230707 67.5171 0.0463596C69.0198 0.32396 70.0131 1.76676 69.7357 3.26929" fill="white"></path> <path d="M91.1518 3.26929C90.8744 4.77196 89.4331 5.76516 87.9304 5.48809C86.4277 5.21049 85.4344 3.76782 85.7118 2.26516C85.9891 0.762625 87.4317 -0.230707 88.9331 0.0463596C90.4357 0.32396 91.4291 1.76676 91.1518 3.26929Z" fill="white"></path> <path d="M5.48645 21.3095C5.20911 22.8121 3.76643 23.8037 2.26509 23.5277C0.762425 23.2507 -0.230894 21.8079 0.0464396 20.3053C0.323773 18.8027 1.76509 17.8095 3.26776 18.0865C4.77043 18.3641 5.76378 19.8069 5.48645 21.3095" fill="white"></path> <path d="M26.9024 21.3095C26.6264 22.8121 25.1838 23.8037 23.6811 23.5277C22.1784 23.2507 21.1851 21.8079 21.4625 20.3053C21.7398 18.8027 23.1824 17.8095 24.6851 18.0865C26.1864 18.3641 27.1798 19.8069 26.9024 21.3095" fill="white"></path> <path d="M48.3198 21.3095C48.0424 22.8121 46.5997 23.8037 45.0971 23.5277C43.5944 23.2507 42.6011 21.8079 42.8784 20.3053C43.1557 18.8027 44.5984 17.8095 46.1011 18.0865C47.6037 18.3641 48.5971 19.8069 48.3198 21.3095" fill="white"></path> <path d="M69.7357 21.3095C69.4584 22.8121 68.0158 23.8037 66.5131 23.5277C65.0118 23.2507 64.0184 21.8079 64.2958 20.3053C64.5718 18.8027 66.0144 17.8095 67.5171 18.0865C69.0198 18.3641 70.0131 19.8069 69.7357 21.3095" fill="white"></path> <path d="M91.1518 21.3095C90.8744 22.8121 89.4331 23.8037 87.9304 23.5277C86.4277 23.2507 85.4344 21.8079 85.7118 20.3053C85.9891 18.8027 87.4317 17.8095 88.9331 18.0865C90.4357 18.3641 91.4291 19.8069 91.1518 21.3095" fill="white"></path> <path d="M5.48645 39.3506C5.20911 40.8532 3.76643 41.8454 2.26509 41.5693C0.762425 41.2917 -0.230894 39.849 0.0464396 38.3464C0.323773 36.8438 1.76509 35.8506 3.26776 36.1277C4.77043 36.4053 5.76378 37.848 5.48645 39.3506Z" fill="white"></path> <path d="M26.9024 39.3506C26.6264 40.8532 25.1838 41.8454 23.6811 41.5693C22.1784 41.2917 21.1851 39.849 21.4625 38.3464C21.7398 36.8438 23.1824 35.8506 24.6851 36.1277C26.1864 36.4053 27.1798 37.848 26.9024 39.3506" fill="white"></path> <path d="M48.3198 39.3506C48.0424 40.8532 46.5997 41.8454 45.0971 41.5693C43.5944 41.2917 42.6011 39.849 42.8784 38.3464C43.1557 36.8438 44.5984 35.8506 46.1011 36.1277C47.6037 36.4053 48.5971 37.848 48.3198 39.3506Z" fill="white"></path> <path d="M69.7357 39.3506C69.4584 40.8532 68.0158 41.8454 66.5131 41.5693C65.0118 41.2917 64.0184 39.849 64.2958 38.3464C64.5718 36.8438 66.0144 35.8506 67.5171 36.1277C69.0198 36.4053 70.0131 37.848 69.7357 39.3506" fill="white"></path> <path d="M91.1518 39.3506C90.8744 40.8532 89.4331 41.8454 87.9304 41.5693C86.4277 41.2917 85.4344 39.849 85.7118 38.3464C85.9891 36.8438 87.4317 35.8506 88.9331 36.1277C90.4357 36.4053 91.4291 37.848 91.1518 39.3506Z" fill="white"></path> <path d="M5.48645 57.3907C5.20911 58.8917 3.76643 59.8855 2.26509 59.6079C0.762425 59.3319 -0.230894 57.8892 0.0464396 56.3865C0.323773 54.884 1.76509 53.8906 3.26776 54.1678C4.77043 54.4454 5.76378 55.8881 5.48645 57.3907Z" fill="white"></path> <path d="M26.9024 57.3907C26.6264 58.8917 25.1838 59.8855 23.6811 59.6079C22.1784 59.3319 21.1851 57.8892 21.4625 56.3865C21.7398 54.884 23.1824 53.8906 24.6851 54.1678C26.1864 54.4454 27.1798 55.8881 26.9024 57.3907" fill="white"></path> <path d="M48.3198 57.3907C48.0424 58.8917 46.5997 59.8855 45.0971 59.6079C43.5944 59.3319 42.6011 57.8892 42.8784 56.3865C43.1557 54.884 44.5984 53.8906 46.1011 54.1678C47.6037 54.4454 48.5971 55.8881 48.3198 57.3907Z" fill="white"></path> <path d="M69.7357 57.3907C69.4584 58.8917 68.0158 59.8855 66.5131 59.6079C65.0118 59.3319 64.0184 57.8892 64.2958 56.3865C64.5718 54.884 66.0144 53.8906 67.5171 54.1678C69.0198 54.4454 70.0131 55.8881 69.7357 57.3907" fill="white"></path> <path d="M91.1518 57.3907C90.8744 58.8917 89.4331 59.8855 87.9304 59.6079C86.4277 59.3319 85.4344 57.8892 85.7118 56.3865C85.9891 54.884 87.4317 53.8906 88.9331 54.1678C90.4357 54.4454 91.4291 55.8881 91.1518 57.3907Z" fill="white"></path> <path d="M5.48645 75.4308C5.20911 76.9319 3.76643 77.9251 2.26509 77.648C0.762425 77.372 -0.230894 75.9293 0.0464396 74.4267C0.323773 72.924 1.76509 71.9308 3.26776 72.2079C4.77043 72.4855 5.76378 73.9283 5.48645 75.4308Z" fill="white"></path> <path d="M26.9024 75.4308C26.6264 76.9319 25.1838 77.9251 23.6811 77.648C22.1784 77.372 21.1851 75.9293 21.4625 74.4267C21.7398 72.924 23.1824 71.9308 24.6851 72.2079C26.1864 72.4855 27.1798 73.9283 26.9024 75.4308" fill="white"></path> <path d="M48.3198 75.4308C48.0424 76.9319 46.5997 77.9251 45.0971 77.648C43.5944 77.372 42.6011 75.9293 42.8784 74.4267C43.1557 72.924 44.5984 71.9308 46.1011 72.2079C47.6037 72.4855 48.5971 73.9283 48.3198 75.4308Z" fill="white"></path> <path d="M69.7357 75.4308C69.4584 76.9319 68.0158 77.9251 66.5131 77.648C65.0118 77.372 64.0184 75.9293 64.2958 74.4267C64.5718 72.924 66.0144 71.9308 67.5171 72.2079C69.0198 72.4855 70.0131 73.9283 69.7357 75.4308" fill="white"></path> <path d="M91.1518 75.4308C90.8744 76.9319 89.4331 77.9251 87.9304 77.648C86.4277 77.372 85.4344 75.9293 85.7118 74.4267C85.9891 72.924 87.4317 71.9308 88.9331 72.2079C90.4357 72.4855 91.4291 73.9283 91.1518 75.4308Z" fill="white"></path> <path d="M5.48645 93.4693C5.20911 94.972 3.76643 95.9668 2.26509 95.6892C0.762425 95.413 -0.230894 93.9693 0.0464396 92.4678C0.323773 90.9652 1.76509 89.9704 3.26776 90.248C4.77043 90.525 5.76378 91.9678 5.48645 93.4693Z" fill="white"></path> <path d="M26.9024 93.4693C26.6264 94.972 25.1838 95.9668 23.6811 95.6892C22.1784 95.413 21.1851 93.9693 21.4625 92.4678C21.7398 90.9652 23.1824 89.9704 24.6851 90.248C26.1864 90.525 27.1798 91.9678 26.9024 93.4693" fill="white"></path> <path d="M48.3198 93.4693C48.0424 94.972 46.5997 95.9668 45.0971 95.6892C43.5944 95.413 42.6011 93.9693 42.8784 92.4678C43.1557 90.9652 44.5984 89.9704 46.1011 90.248C47.6037 90.525 48.5971 91.9678 48.3198 93.4693Z" fill="white"></path> <path d="M69.7357 93.4693C69.4584 94.972 68.0158 95.9668 66.5131 95.6892C65.0118 95.413 64.0184 93.9693 64.2958 92.4678C64.5718 90.9652 66.0144 89.9704 67.5171 90.248C69.0198 90.525 70.0131 91.9678 69.7357 93.4693" fill="white"></path> <path d="M91.1518 93.4693C90.8744 94.972 89.4331 95.9668 87.9304 95.6892C86.4277 95.413 85.4344 93.9693 85.7118 92.4678C85.9891 90.9652 87.4317 89.9704 88.9331 90.248C90.4357 90.525 91.4291 91.9678 91.1518 93.4693Z" fill="white"></path> <path d="M5.48645 111.511C5.20911 113.013 3.76643 114.007 2.26509 113.729C0.762425 113.452 -0.230894 112.011 0.0464396 110.508C0.323773 109.005 1.76509 108.012 3.26776 108.289C4.77043 108.567 5.76378 110.009 5.48645 111.511Z" fill="white"></path> <path d="M26.9024 111.511C26.6264 113.013 25.1838 114.007 23.6811 113.729C22.1784 113.452 21.1851 112.011 21.4625 110.508C21.7398 109.005 23.1824 108.012 24.6851 108.289C26.1864 108.567 27.1798 110.009 26.9024 111.511" fill="white"></path> <path d="M48.3198 111.511C48.0424 113.013 46.5997 114.007 45.0971 113.729C43.5944 113.452 42.6011 112.011 42.8784 110.508C43.1557 109.005 44.5984 108.012 46.1011 108.289C47.6037 108.567 48.5971 110.009 48.3198 111.511Z" fill="white"></path> <path d="M69.7357 111.511C69.4584 113.013 68.0158 114.007 66.5131 113.729C65.0118 113.452 64.0184 112.011 64.2958 110.508C64.5718 109.005 66.0144 108.012 67.5171 108.289C69.0198 108.567 70.0131 110.009 69.7357 111.511" fill="white"></path> <path d="M91.1518 111.511C90.8744 113.013 89.4331 114.007 87.9304 113.729C86.4277 113.452 85.4344 112.011 85.7118 110.508C85.9891 109.005 87.4317 108.012 88.9331 108.289C90.4357 108.567 91.4291 110.009 91.1518 111.511Z" fill="white"></path> </svg> 