<svg xmlns="http://www.w3.org/2000/svg" fill-rule="evenodd" viewBox="0 0 100 100">
    <path d="m70 57.75 12.5-12 12.5 12"/>
    <path d="M83.854 45.613a1.496 1.496 0 0 0-1.632-1.356 1.5 1.5 0 0 0-1.356 1.631c.09.97.135 1.956.135 2.929 0 17.333-14.043 31.434-31.304 31.434-8.36 0-16.222-3.269-22.134-9.205a1.5 1.5 0 1 0-2.125 2.118c6.479 6.505 15.095 10.087 24.259 10.087 18.915 0 34.304-15.447 34.304-34.434a36.082 36.082 0 0 0-.147-3.204zm-52.772-.901a1.498 1.498 0 0 0-2.121-.043L18.513 54.7a31.556 31.556 0 0 1-.512-5.632c0-17.268 14.051-31.317 31.322-31.317 8.351 0 16.206 3.247 22.118 9.143a1.501 1.501 0 0 0 2.119-2.124c-6.479-6.46-15.087-10.019-24.237-10.019-18.926 0-34.322 15.395-34.322 34.317 0 1.505.102 3.004.296 4.488L6.04 44.669a1.5 1.5 0 0 0-2.078 2.164l12.5 12c.29.279.665.418 1.039.418s.749-.139 1.039-.418l12.5-12a1.5 1.5 0 0 0 .042-2.121z"/>
</svg>
